#!OML:ASF H:\IndianDance\Patient Classification 1\Patient 1\Session 1\dancer.ASF
:FULLY-SPECIFIED
:DEGREES
1633
root 35.1069 14.1015 0.81051 -179.954 69.0872 178.516
lowerback 9.03626 -0.00338194 -6.60537
upperback -7.19749 -1.32107 -7.18609
thorax -13.0894 -0.253338 -4.03212
lowerneck -20.025 0.591992 -0.885109
upperneck 20.252 -2.60692 18.6343
head 10.1787 1.25178 6.56128
rclavicle -5.4467e-014 1.17681e-013
rhumerus 3.35938 -2.29232 13.8769
rradius 25.3946
rwrist -14.486
rhand 32.7776 -29.5026
rfingers 7.12502
rthumb 56.1853 -46.7477
lclavicle -5.4467e-014 1.17681e-013
lhumerus 9.95682 -59.2161 2.87619
lradius 116.451
lwrist 1.22621
lhand -61.0749 -55.0229
lfingers 7.12502
lthumb -33.1745 331.94
rfemur -35.7862 -22.553 36.0118
rtibia 60.2424
rfoot -24.2266 -7.91407
rtoes 27.1148
lfemur -32.7732 23.3882 -5.47451
ltibia 56.0093
lfoot -20.5446 19.7619
ltoes 8.26505
1634
root 35.1365 14.0886 0.850149 -180.279 69.8452 178.137
lowerback 9.09242 -0.0149771 -6.60121
upperback -7.19903 -1.34705 -7.14754
thorax -13.1254 -0.266647 -3.98673
lowerneck -19.872 0.591482 -0.918884
upperneck 20.0913 -2.56946 18.5952
head 10.0853 1.24039 6.53991
rclavicle -3.45885e-014 -1.59028e-014
rhumerus 3.58571 -3.26976 13.5452
rradius 25.1505
rwrist -13.6185
rhand 33.331 -29.3214
rfingers 7.12502
rthumb 56.6742 -46.1757
lclavicle -3.45885e-014 -1.59028e-014
lhumerus 9.92093 -59.3084 2.95867
lradius 116.234
lwrist 0.567848
lhand -60.935 -50.7742
lfingers 7.12502
lthumb -33.0415 336.217
rfemur -35.7358 -22.4136 36.1465
rtibia 60.3524
rfoot -24.2569 -7.41594
rtoes 27.3887
lfemur -32.7429 23.7051 -5.50185
ltibia 57.2733
lfoot -22.0108 21.4779
ltoes 12.1856
1635
root 35.1655 14.0885 0.898872 -180.281 70.7495 178.063
lowerback 9.06081 -0.0134866 -6.56271
upperback -7.18405 -1.33826 -7.07928
thorax -13.0854 -0.266767 -3.92966
lowerneck -19.8335 0.600762 -1.04924
upperneck 19.9735 -2.53463 18.7318
head 10.0354 1.25011 6.60998
rclavicle -1.23246e-014 -9.22361e-014
rhumerus 3.55772 -3.15597 13.5177
rradius 25.2478
rwrist -14.1162
rhand 33.4946 -29.5913
rfingers 7.12502
rthumb 56.8183 -46.3277
lclavicle -1.23246e-014 -9.22361e-014
lhumerus 10.0073 -59.2811 2.8266
lradius 116.039
lwrist 0.0122765
lhand -60.9106 -48.1478
lfingers 7.12502
lthumb -33.0183 338.849
rfemur -35.6121 -22.0448 36.4418
rtibia 60.3183
rfoot -24.2091 -7.00808
rtoes 27.6243
lfemur -32.6832 24.2154 -5.35181
ltibia 58.5946
lfoot -23.0086 22.3491
ltoes 15.1584
1636
root 35.1899 14.0922 0.949788 -180.749 71.5241 177.415
lowerback 9.09786 -0.0599478 -6.6428
upperback -7.25679 -1.42609 -7.12069
thorax -13.1974 -0.301012 -3.92081
lowerneck -19.7169 0.593971 -1.14596
upperneck 19.9044 -2.54869 18.9681
head 9.99717 1.25573 6.70743
rclavicle -1.55052e-014 -6.36111e-015
rhumerus 3.63373 -3.86942 13.0929
rradius 25.1738
rwrist -13.5054
rhand 33.8953 -29.5268
rfingers 7.12502
rthumb 57.1707 -45.9696
lclavicle -1.55052e-014 -6.36111e-015
lhumerus 10.1934 -59.3208 2.54894
lradius 116.082
lwrist 0.258629
lhand -60.9456 -48.8233
lfingers 7.12502
lthumb -33.0516 338.166
rfemur -35.595 -21.8797 36.5693
rtibia 60.1916
rfoot -24.0579 -6.39323
rtoes 27.9164
lfemur -32.7588 24.6736 -5.452
ltibia 60.0447
lfoot -23.0103 22.5653
ltoes 15.9673
1637
root 35.2143 14.1068 0.997019 -181.607 72.4563 176.446
lowerback 9.03884 -0.0339584 -6.7836
upperback -7.22614 -1.40727 -7.16456
thorax -13.1245 -0.282733 -3.89149
lowerneck -19.6702 0.615319 -1.17944
upperneck 19.7627 -2.51327 19.0756
head 9.93669 1.26932 6.74749
rclavicle -6.2816e-014 4.13472e-014
rhumerus 3.48799 -2.61326 13.3889
rradius 25.4154
rwrist -15.2238
rhand 33.8215 -29.4682
rfingers 7.12502
rthumb 57.1059 -45.9657
lclavicle -6.2816e-014 4.13472e-014
lhumerus 10.4557 -59.1738 2.27619
lradius 116.121
lwrist 0.394992
lhand -60.9265 -48.5504
lfingers 7.12502
lthumb -33.0334 338.443
rfemur -35.372 -21.6471 36.5245
rtibia 59.9517
rfoot -23.7834 -5.69983
rtoes 28.2741
lfemur -32.6751 25.2321 -5.61781
ltibia 61.6628
lfoot -22.4729 22.2799
ltoes 15.4043
